<mxfile host="app.diagrams.net" modified="2022-09-27T18:26:59.394Z" agent="5.0 (Macintosh; Intel Mac OS X 10_15_7) AppleWebKit/605.1.15 (KHTML, like Gecko) Version/15.5 Safari/605.1.15" etag="XAJTdvnwmIraNnVI1Ciz" version="20.3.7" type="github">
  <diagram id="kgpKYQtTHZ0yAKxKKP6v" name="Page-1">
    <mxGraphModel dx="723" dy="697" grid="1" gridSize="10" guides="1" tooltips="1" connect="1" arrows="1" fold="1" page="1" pageScale="1" pageWidth="850" pageHeight="1100" math="0" shadow="0">
      <root>
        <mxCell id="0" />
        <mxCell id="1" parent="0" />
        <mxCell id="ihE5r4mFHuhSe3G6hK0R-1" value="AND" style="shape=or;whiteSpace=wrap;html=1;" vertex="1" parent="1">
          <mxGeometry x="160" y="350" width="60" height="50" as="geometry" />
        </mxCell>
        <mxCell id="ihE5r4mFHuhSe3G6hK0R-5" value="q" style="endArrow=none;html=1;rounded=0;entryX=0;entryY=0.25;entryDx=0;entryDy=0;entryPerimeter=0;" edge="1" parent="1" target="ihE5r4mFHuhSe3G6hK0R-1">
          <mxGeometry width="50" height="50" relative="1" as="geometry">
            <mxPoint x="120" y="363" as="sourcePoint" />
            <mxPoint x="110" y="390" as="targetPoint" />
          </mxGeometry>
        </mxCell>
        <mxCell id="ihE5r4mFHuhSe3G6hK0R-6" value="t" style="endArrow=none;html=1;rounded=0;entryX=0;entryY=0.75;entryDx=0;entryDy=0;entryPerimeter=0;" edge="1" parent="1" target="ihE5r4mFHuhSe3G6hK0R-1">
          <mxGeometry width="50" height="50" relative="1" as="geometry">
            <mxPoint x="90" y="388" as="sourcePoint" />
            <mxPoint x="110" y="390" as="targetPoint" />
          </mxGeometry>
        </mxCell>
        <mxCell id="ihE5r4mFHuhSe3G6hK0R-7" value="AND" style="shape=or;whiteSpace=wrap;html=1;" vertex="1" parent="1">
          <mxGeometry x="160" y="480" width="60" height="50" as="geometry" />
        </mxCell>
        <mxCell id="ihE5r4mFHuhSe3G6hK0R-9" value="t" style="endArrow=none;html=1;rounded=0;entryX=0;entryY=0.25;entryDx=0;entryDy=0;entryPerimeter=0;" edge="1" parent="1" target="ihE5r4mFHuhSe3G6hK0R-7">
          <mxGeometry width="50" height="50" relative="1" as="geometry">
            <mxPoint x="90" y="493" as="sourcePoint" />
            <mxPoint x="110" y="390" as="targetPoint" />
          </mxGeometry>
        </mxCell>
        <mxCell id="ihE5r4mFHuhSe3G6hK0R-10" value="q" style="endArrow=none;html=1;rounded=0;entryX=0;entryY=0.75;entryDx=0;entryDy=0;entryPerimeter=0;" edge="1" parent="1" target="ihE5r4mFHuhSe3G6hK0R-7">
          <mxGeometry width="50" height="50" relative="1" as="geometry">
            <mxPoint x="120" y="520" as="sourcePoint" />
            <mxPoint x="110" y="390" as="targetPoint" />
          </mxGeometry>
        </mxCell>
        <mxCell id="ihE5r4mFHuhSe3G6hK0R-11" value="" style="endArrow=none;html=1;rounded=0;" edge="1" parent="1">
          <mxGeometry width="50" height="50" relative="1" as="geometry">
            <mxPoint x="120" y="520" as="sourcePoint" />
            <mxPoint x="120" y="360" as="targetPoint" />
          </mxGeometry>
        </mxCell>
        <mxCell id="ihE5r4mFHuhSe3G6hK0R-12" value="clk" style="shape=offPageConnector;whiteSpace=wrap;html=1;direction=north;size=0.125;" vertex="1" parent="1">
          <mxGeometry x="20" y="420" width="40" height="30" as="geometry" />
        </mxCell>
        <mxCell id="ihE5r4mFHuhSe3G6hK0R-13" value="t" style="shape=offPageConnector;whiteSpace=wrap;html=1;direction=north;" vertex="1" parent="1">
          <mxGeometry x="20" y="460" width="40" height="30" as="geometry" />
        </mxCell>
        <mxCell id="ihE5r4mFHuhSe3G6hK0R-14" value="" style="endArrow=none;html=1;rounded=0;" edge="1" parent="1">
          <mxGeometry width="50" height="50" relative="1" as="geometry">
            <mxPoint x="90" y="490" as="sourcePoint" />
            <mxPoint x="90" y="390" as="targetPoint" />
          </mxGeometry>
        </mxCell>
        <mxCell id="ihE5r4mFHuhSe3G6hK0R-15" value="" style="endArrow=none;html=1;rounded=0;exitX=0.5;exitY=1;exitDx=0;exitDy=0;" edge="1" parent="1" source="ihE5r4mFHuhSe3G6hK0R-12">
          <mxGeometry width="50" height="50" relative="1" as="geometry">
            <mxPoint x="340" y="440" as="sourcePoint" />
            <mxPoint x="510" y="435" as="targetPoint" />
          </mxGeometry>
        </mxCell>
        <mxCell id="ihE5r4mFHuhSe3G6hK0R-16" value="" style="endArrow=none;html=1;rounded=0;" edge="1" parent="1" target="ihE5r4mFHuhSe3G6hK0R-17">
          <mxGeometry width="50" height="50" relative="1" as="geometry">
            <mxPoint x="120" y="420" as="sourcePoint" />
            <mxPoint x="660" y="420" as="targetPoint" />
            <Array as="points">
              <mxPoint x="500" y="420" />
              <mxPoint x="540" y="420" />
            </Array>
          </mxGeometry>
        </mxCell>
        <mxCell id="ihE5r4mFHuhSe3G6hK0R-17" value="q" style="shape=offPageConnector;whiteSpace=wrap;html=1;direction=north;" vertex="1" parent="1">
          <mxGeometry x="740" y="410" width="50" height="20" as="geometry" />
        </mxCell>
        <mxCell id="ihE5r4mFHuhSe3G6hK0R-18" value="" style="endArrow=none;html=1;rounded=0;" edge="1" parent="1">
          <mxGeometry width="50" height="50" relative="1" as="geometry">
            <mxPoint x="510" y="430" as="sourcePoint" />
            <mxPoint x="510" y="480" as="targetPoint" />
          </mxGeometry>
        </mxCell>
        <mxCell id="ihE5r4mFHuhSe3G6hK0R-19" value="clk" style="endArrow=none;html=1;rounded=0;entryX=0.005;entryY=0.589;entryDx=0;entryDy=0;entryPerimeter=0;" edge="1" parent="1" target="ihE5r4mFHuhSe3G6hK0R-22">
          <mxGeometry width="50" height="50" relative="1" as="geometry">
            <mxPoint x="510" y="480" as="sourcePoint" />
            <mxPoint x="540" y="480" as="targetPoint" />
          </mxGeometry>
        </mxCell>
        <mxCell id="ihE5r4mFHuhSe3G6hK0R-22" value="                            &#xa;&#xa;&#xa;&#xa;&#xa;D_Flip_Flop" style="swimlane;startSize=0;" vertex="1" parent="1">
          <mxGeometry x="560" y="440" width="80" height="70" as="geometry" />
        </mxCell>
        <mxCell id="ihE5r4mFHuhSe3G6hK0R-23" value="d" style="endArrow=none;html=1;rounded=0;entryX=0;entryY=0.75;entryDx=0;entryDy=0;" edge="1" parent="1" target="ihE5r4mFHuhSe3G6hK0R-22">
          <mxGeometry width="50" height="50" relative="1" as="geometry">
            <mxPoint x="510" y="493" as="sourcePoint" />
            <mxPoint x="490" y="390" as="targetPoint" />
          </mxGeometry>
        </mxCell>
        <mxCell id="ihE5r4mFHuhSe3G6hK0R-24" value="q" style="endArrow=none;html=1;rounded=0;" edge="1" parent="1">
          <mxGeometry width="50" height="50" relative="1" as="geometry">
            <mxPoint x="640" y="470" as="sourcePoint" />
            <mxPoint x="720" y="470" as="targetPoint" />
          </mxGeometry>
        </mxCell>
        <mxCell id="ihE5r4mFHuhSe3G6hK0R-25" value="" style="endArrow=none;html=1;rounded=0;" edge="1" parent="1">
          <mxGeometry width="50" height="50" relative="1" as="geometry">
            <mxPoint x="720" y="420" as="sourcePoint" />
            <mxPoint x="720" y="470" as="targetPoint" />
          </mxGeometry>
        </mxCell>
        <mxCell id="ihE5r4mFHuhSe3G6hK0R-27" value="OR" style="shape=xor;whiteSpace=wrap;html=1;" vertex="1" parent="1">
          <mxGeometry x="260" y="460" width="60" height="60" as="geometry" />
        </mxCell>
        <mxCell id="ihE5r4mFHuhSe3G6hK0R-28" value="" style="endArrow=none;html=1;rounded=0;exitX=1;exitY=0.5;exitDx=0;exitDy=0;exitPerimeter=0;entryX=0.175;entryY=0.75;entryDx=0;entryDy=0;entryPerimeter=0;" edge="1" parent="1" source="ihE5r4mFHuhSe3G6hK0R-7" target="ihE5r4mFHuhSe3G6hK0R-27">
          <mxGeometry width="50" height="50" relative="1" as="geometry">
            <mxPoint x="440" y="440" as="sourcePoint" />
            <mxPoint x="490" y="390" as="targetPoint" />
          </mxGeometry>
        </mxCell>
        <mxCell id="ihE5r4mFHuhSe3G6hK0R-29" value="AND" style="shape=or;whiteSpace=wrap;html=1;" vertex="1" parent="1">
          <mxGeometry x="395" y="530" width="60" height="50" as="geometry" />
        </mxCell>
        <mxCell id="ihE5r4mFHuhSe3G6hK0R-31" value="" style="endArrow=none;html=1;rounded=0;exitX=1;exitY=0.5;exitDx=0;exitDy=0;exitPerimeter=0;" edge="1" parent="1" source="ihE5r4mFHuhSe3G6hK0R-27">
          <mxGeometry width="50" height="50" relative="1" as="geometry">
            <mxPoint x="290" y="440" as="sourcePoint" />
            <mxPoint x="350" y="490" as="targetPoint" />
          </mxGeometry>
        </mxCell>
        <mxCell id="ihE5r4mFHuhSe3G6hK0R-32" value="" style="endArrow=none;html=1;rounded=0;" edge="1" parent="1">
          <mxGeometry width="50" height="50" relative="1" as="geometry">
            <mxPoint x="350" y="570" as="sourcePoint" />
            <mxPoint x="350" y="490" as="targetPoint" />
          </mxGeometry>
        </mxCell>
        <mxCell id="ihE5r4mFHuhSe3G6hK0R-33" value="" style="endArrow=none;html=1;rounded=0;entryX=0;entryY=0.75;entryDx=0;entryDy=0;entryPerimeter=0;" edge="1" parent="1" target="ihE5r4mFHuhSe3G6hK0R-29">
          <mxGeometry width="50" height="50" relative="1" as="geometry">
            <mxPoint x="350" y="568" as="sourcePoint" />
            <mxPoint x="340" y="390" as="targetPoint" />
          </mxGeometry>
        </mxCell>
        <mxCell id="ihE5r4mFHuhSe3G6hK0R-34" value="rst_n" style="shape=offPageConnector;whiteSpace=wrap;html=1;direction=north;" vertex="1" parent="1">
          <mxGeometry x="20" y="535" width="40" height="30" as="geometry" />
        </mxCell>
        <mxCell id="ihE5r4mFHuhSe3G6hK0R-36" value="" style="endArrow=none;html=1;rounded=0;exitX=0.5;exitY=1;exitDx=0;exitDy=0;entryX=-0.025;entryY=0.382;entryDx=0;entryDy=0;entryPerimeter=0;" edge="1" parent="1" source="ihE5r4mFHuhSe3G6hK0R-34" target="ihE5r4mFHuhSe3G6hK0R-29">
          <mxGeometry width="50" height="50" relative="1" as="geometry">
            <mxPoint x="290" y="440" as="sourcePoint" />
            <mxPoint x="390" y="550" as="targetPoint" />
          </mxGeometry>
        </mxCell>
        <mxCell id="ihE5r4mFHuhSe3G6hK0R-37" value="" style="endArrow=none;html=1;rounded=0;exitX=1;exitY=0.5;exitDx=0;exitDy=0;exitPerimeter=0;" edge="1" parent="1" source="ihE5r4mFHuhSe3G6hK0R-1">
          <mxGeometry width="50" height="50" relative="1" as="geometry">
            <mxPoint x="290" y="440" as="sourcePoint" />
            <mxPoint x="240" y="375" as="targetPoint" />
          </mxGeometry>
        </mxCell>
        <mxCell id="ihE5r4mFHuhSe3G6hK0R-38" value="" style="endArrow=none;html=1;rounded=0;" edge="1" parent="1">
          <mxGeometry width="50" height="50" relative="1" as="geometry">
            <mxPoint x="240" y="370" as="sourcePoint" />
            <mxPoint x="240" y="480" as="targetPoint" />
          </mxGeometry>
        </mxCell>
        <mxCell id="ihE5r4mFHuhSe3G6hK0R-39" value="" style="endArrow=none;html=1;rounded=0;entryX=0.254;entryY=0.354;entryDx=0;entryDy=0;entryPerimeter=0;" edge="1" parent="1" target="ihE5r4mFHuhSe3G6hK0R-27">
          <mxGeometry width="50" height="50" relative="1" as="geometry">
            <mxPoint x="240" y="480" as="sourcePoint" />
            <mxPoint x="340" y="390" as="targetPoint" />
          </mxGeometry>
        </mxCell>
        <mxCell id="ihE5r4mFHuhSe3G6hK0R-41" value="" style="endArrow=none;html=1;rounded=0;" edge="1" parent="1">
          <mxGeometry width="50" height="50" relative="1" as="geometry">
            <mxPoint x="510" y="490" as="sourcePoint" />
            <mxPoint x="510" y="550" as="targetPoint" />
          </mxGeometry>
        </mxCell>
        <mxCell id="ihE5r4mFHuhSe3G6hK0R-42" value="" style="endArrow=none;html=1;rounded=0;exitX=1;exitY=0.5;exitDx=0;exitDy=0;exitPerimeter=0;" edge="1" parent="1" source="ihE5r4mFHuhSe3G6hK0R-29">
          <mxGeometry width="50" height="50" relative="1" as="geometry">
            <mxPoint x="290" y="440" as="sourcePoint" />
            <mxPoint x="510" y="550" as="targetPoint" />
          </mxGeometry>
        </mxCell>
      </root>
    </mxGraphModel>
  </diagram>
</mxfile>
